<svg width="23" height="23" viewBox="0 0 23 23" fill="none" xmlns="http://www.w3.org/2000/svg">
<path d="M11.5965 0.805176C9.49215 0.805176 7.43508 1.42918 5.68539 2.59829C3.9357 3.76739 2.57198 5.42909 1.76669 7.37324C0.961397 9.31739 0.750696 11.4567 1.16123 13.5206C1.57177 15.5845 2.5851 17.4803 4.07309 18.9683C5.56107 20.4563 7.45689 21.4696 9.52079 21.8801C11.5847 22.2907 13.724 22.08 15.6681 21.2747C17.6123 20.4694 19.274 19.1057 20.4431 17.356C21.6122 15.6063 22.2362 13.5492 22.2362 11.4449C22.2332 8.62396 21.1113 5.91945 19.1166 3.92476C17.1219 1.93008 14.4174 0.808155 11.5965 0.805176ZM4.68069 5.68716L6.42703 7.4335C5.70402 8.35849 5.24449 9.46171 5.09707 10.6264H2.63152C2.79601 8.80984 3.5109 7.08669 4.68069 5.68716ZM2.63152 12.2633H5.10218C5.24961 13.428 5.70914 14.5313 6.43214 15.4562L4.68069 17.2026C3.5109 15.8031 2.79601 14.0799 2.63152 12.2633ZM10.778 20.4098C8.9618 20.2462 7.23868 19.5324 5.83878 18.3637L7.58512 16.6174C8.51099 17.3375 9.61413 17.7941 10.778 17.9392V20.4098ZM10.778 4.95056C9.61332 5.09799 8.5101 5.55752 7.58512 6.28053L5.83878 4.52907C7.23868 3.36039 8.9618 2.64659 10.778 2.48297V4.95056ZM20.5615 10.6264H18.0908C17.9449 9.46221 17.4871 8.35904 16.7659 7.4335L18.5123 5.68716C19.6821 7.08669 20.397 8.80984 20.5615 10.6264ZM12.4149 2.4799C14.2312 2.64352 15.9543 3.35732 17.3542 4.526L15.6079 6.27541C14.6829 5.55241 13.5797 5.09288 12.4149 4.94545V2.4799ZM12.4149 20.4098V17.9392C13.5791 17.7932 14.6823 17.3355 15.6079 16.6143L17.3542 18.3607C15.9547 19.5305 14.2315 20.2454 12.4149 20.4098ZM18.5123 17.2026L16.7659 15.4562C17.4871 14.5307 17.9449 13.4275 18.0908 12.2633H20.5615C20.397 14.0799 19.6821 15.8031 18.5123 17.2026Z" fill="#595A5A"/>
<path d="M8.79911 13.6431C8.70431 13.3318 8.97623 13.0624 9.30168 13.0624C9.62713 13.0624 9.89109 13.3479 10.0898 13.6057C10.3871 13.9914 10.9853 14.263 11.6588 14.263C12.6193 14.263 13.4266 13.7107 13.4266 13.0624C13.4266 12.402 12.8138 12.1619 11.5174 11.8438C10.2681 11.5256 8.7124 11.1294 8.7124 9.46056C8.7124 8.55551 9.32693 7.76544 10.2356 7.35579C10.5424 7.21748 10.7749 6.93203 10.7749 6.59549C10.7749 6.18861 11.1047 5.85876 11.5116 5.85876H11.806C12.2128 5.85876 12.5427 6.18861 12.5427 6.59549C12.5427 6.93203 12.7752 7.21748 13.082 7.35579C13.7897 7.67484 14.319 8.22465 14.5184 8.87981C14.6133 9.19115 14.3413 9.46056 14.0159 9.46056C13.6904 9.46056 13.4265 9.17502 13.2278 8.91726C12.9304 8.53148 12.3323 8.25996 11.6588 8.25996C10.6983 8.25996 9.89095 8.81224 9.89095 9.46056C9.89095 10.1209 10.5038 10.361 11.8002 10.6792C13.0495 10.9973 14.6052 11.3935 14.6052 13.0624C14.6052 13.9674 13.9906 14.7575 13.082 15.1671C12.7752 15.3054 12.5427 15.5909 12.5427 15.9274C12.5427 16.3343 12.2128 16.6642 11.806 16.6642H11.5116C11.1047 16.6642 10.7749 16.3343 10.7749 15.9274C10.7749 15.5909 10.5424 15.3054 10.2356 15.1671C9.52788 14.8481 8.99861 14.2983 8.79911 13.6431Z" fill="#090A0B"/>
</svg>
