<svg width="22" height="22" viewBox="0 0 22 22" fill="none" xmlns="http://www.w3.org/2000/svg">
<path d="M10.877 0.402588C8.77267 0.402588 6.7156 1.0266 4.96591 2.1957C3.21622 3.3648 1.8525 5.0265 1.04721 6.97065C0.241915 8.9148 0.0312132 11.0541 0.441748 13.118C0.852283 15.1819 1.86562 17.0777 3.3536 18.5657C4.84159 20.0537 6.7374 21.067 8.8013 21.4775C10.8652 21.8881 13.0045 21.6774 14.9486 20.8721C16.8928 20.0668 18.5545 18.7031 19.7236 16.9534C20.8927 15.2037 21.5167 13.1466 21.5167 11.0423C21.5137 8.22138 20.3918 5.51686 18.3971 3.52217C16.4024 1.52749 13.6979 0.405567 10.877 0.402588ZM3.9612 5.28457L5.70755 7.03091C4.98454 7.9559 4.52501 9.05912 4.37758 10.2238H1.91204C2.07653 8.40725 2.79142 6.6841 3.9612 5.28457ZM1.91204 11.8607H4.3827C4.53013 13.0255 4.98965 14.1287 5.71266 15.0537L3.9612 16.8C2.79142 15.4005 2.07653 13.6773 1.91204 11.8607ZM10.0586 20.0073C8.24231 19.8436 6.5192 19.1298 5.11929 17.9612L6.86563 16.2148C7.7915 16.9349 8.89465 17.3916 10.0586 17.5366V20.0073ZM10.0586 4.54798C8.89384 4.69541 7.79062 5.15493 6.86563 5.87794L5.11929 4.12648C6.5192 2.9578 8.24231 2.244 10.0586 2.08039V4.54798ZM19.842 10.2238H17.3713C17.2254 9.05963 16.7676 7.95645 16.0465 7.03091L17.7928 5.28457C18.9626 6.6841 19.6775 8.40725 19.842 10.2238ZM11.6954 2.07732C13.5117 2.24093 15.2348 2.95473 16.6347 4.12341L14.8884 5.87282C13.9634 5.14982 12.8602 4.69029 11.6954 4.54286V2.07732ZM11.6954 20.0073V17.5366C12.8597 17.3907 13.9628 16.9329 14.8884 16.2117L16.6347 17.9581C15.2352 19.1279 13.512 19.8428 11.6954 20.0073ZM17.7928 16.8L16.0465 15.0537C16.7676 14.1281 17.2254 13.0249 17.3713 11.8607H19.842C19.6775 13.6773 18.9626 15.4005 17.7928 16.8Z" fill="#3377F6"/>
<path d="M8.07938 13.2405C7.98458 12.9292 8.2565 12.6598 8.58195 12.6598C8.9074 12.6598 9.17136 12.9453 9.37005 13.2031C9.6674 13.5888 10.2656 13.8604 10.9391 13.8604C11.8996 13.8604 12.7069 13.3081 12.7069 12.6598C12.7069 11.9994 12.094 11.7593 10.7976 11.4412C9.54836 11.123 7.99268 10.7268 7.99268 9.05797C7.99268 8.15292 8.6072 7.36286 9.51583 6.95321C9.82263 6.81489 10.0551 6.52944 10.0551 6.19291C10.0551 5.78602 10.385 5.45618 10.7919 5.45618H11.0862C11.4931 5.45618 11.823 5.78602 11.823 6.19291C11.823 6.52944 12.0555 6.81489 12.3623 6.95321C13.07 7.27226 13.5992 7.82206 13.7987 8.47723C13.8935 8.78856 13.6216 9.05797 13.2962 9.05797C12.9707 9.05797 12.7067 8.77243 12.5081 8.51467C12.2107 8.1289 11.6125 7.85737 10.9391 7.85737C9.97853 7.85737 9.17123 8.40965 9.17123 9.05797C9.17123 9.7183 9.78407 9.95842 11.0805 10.2766C12.3297 10.5947 13.8854 10.9909 13.8854 12.6598C13.8854 13.5648 13.2709 14.3549 12.3623 14.7645C12.0555 14.9029 11.823 15.1883 11.823 15.5248C11.823 15.9317 11.4931 16.2616 11.0862 16.2616H10.7919C10.385 16.2616 10.0551 15.9317 10.0551 15.5248C10.0551 15.1883 9.82263 14.9029 9.51583 14.7645C8.80816 14.4455 8.27888 13.8957 8.07938 13.2405Z" fill="#222222"/>
</svg>
